<svg width="149" height="69" viewBox="0 0 149 69" fill="none" xmlns="http://www.w3.org/2000/svg">
<path d="M0.625 26H7.485C14.135 26 18.72 22.395 18.72 14.52C18.72 6.61 14.135 3.215 7.17 3.215H0.625V26ZM6.085 21.625V7.59H6.855C10.53 7.59 13.155 9.095 13.155 14.52C13.155 19.91 10.53 21.625 6.855 21.625H6.085ZM26.9002 26.42C28.8602 26.42 30.4352 25.545 31.8702 24.25H32.0102L32.3952 26H36.8052V16.13C36.8052 10.67 34.2852 8.185 29.8052 8.185C27.0752 8.185 24.5902 9.06 22.3152 10.46L24.2052 13.96C25.9552 12.98 27.3552 12.49 28.7552 12.49C30.5402 12.49 31.2752 13.33 31.4152 14.765C24.5552 15.465 21.7202 17.46 21.7202 21.135C21.7202 24.04 23.7152 26.42 26.9002 26.42ZM28.7552 22.22C27.5652 22.22 26.9002 21.73 26.9002 20.715C26.9002 19.49 27.9502 18.545 31.4152 18.09V20.855C30.5752 21.695 29.8402 22.22 28.7552 22.22ZM41.0497 26H46.4397V8.605H41.0497V26ZM43.7447 6.155C45.5297 6.155 46.7897 5.07 46.7897 3.355C46.7897 1.675 45.5297 0.59 43.7447 0.59C41.9597 0.59 40.6997 1.675 40.6997 3.355C40.6997 5.07 41.9597 6.155 43.7447 6.155ZM55.7943 26.42C56.9843 26.42 57.8943 26.21 58.4893 25.965L57.8593 21.975C57.5793 22.045 57.4393 22.045 57.2293 22.045C56.8093 22.045 56.2493 21.695 56.2493 20.575V1.535H50.8593V20.365C50.8593 24.005 52.0843 26.42 55.7943 26.42ZM63.1457 32.72C67.3107 32.72 69.1657 30.515 70.8807 26.035L76.8657 8.605H71.6857L69.6907 15.815C69.2357 17.46 68.8857 19.105 68.5007 20.75H68.3607C67.9057 19.035 67.5207 17.425 67.0307 15.815L64.6507 8.605H59.2257L65.9107 25.51L65.6657 26.35C65.2457 27.61 64.4057 28.485 62.7257 28.485C62.3757 28.485 62.1307 28.45 61.5707 28.31L60.6257 32.3C61.3257 32.58 62.0257 32.72 63.1457 32.72ZM0.625 68H7.485C14.135 68 18.72 64.395 18.72 56.52C18.72 48.61 14.135 45.215 7.17 45.215H0.625V68ZM6.085 63.625V49.59H6.855C10.53 49.59 13.155 51.095 13.155 56.52C13.155 61.91 10.53 63.625 6.855 63.625H6.085ZM22.4902 68H27.8802V50.605H22.4902V68ZM25.1852 48.155C26.9702 48.155 28.2302 47.07 28.2302 45.355C28.2302 43.675 26.9702 42.59 25.1852 42.59C23.4002 42.59 22.1402 43.675 22.1402 45.355C22.1402 47.07 23.4002 48.155 25.1852 48.155ZM37.5147 68.42C42.2397 68.42 44.7597 65.935 44.7597 62.75C44.7597 59.88 42.6597 58.305 39.9997 57.465C37.7947 56.765 36.8147 56.345 36.8147 55.435C36.8147 54.665 37.4097 54.175 38.6697 54.175C39.8597 54.175 41.1547 54.525 42.4147 55.435L44.7247 52.39C43.2197 51.13 41.0497 50.185 38.4947 50.185C34.4347 50.185 31.7747 52.39 31.7747 55.68C31.7747 58.375 33.8747 59.95 36.3597 60.86C38.2147 61.56 39.6847 62.015 39.6847 63.065C39.6847 63.905 39.0897 64.43 37.6197 64.43C36.2547 64.43 34.6797 64.01 33.0697 62.75L30.7947 65.795C32.5447 67.51 35.2047 68.42 37.5147 68.42ZM55.5848 68.42C57.4398 68.42 59.6448 67.895 61.3248 66.355L59.2248 62.96C58.3498 63.625 57.3698 64.045 56.2148 64.045C54.0798 64.045 52.4698 62.19 52.4698 59.285C52.4698 56.415 53.9748 54.525 56.3898 54.525C57.1598 54.525 57.8248 54.77 58.6298 55.365L61.1498 52.04C59.8548 50.92 58.2098 50.185 56.0748 50.185C51.2448 50.185 46.9398 53.51 46.9398 59.285C46.9398 65.06 50.6848 68.42 55.5848 68.42ZM70.8599 68.42C75.3049 68.42 79.3999 65.06 79.3999 59.285C79.3999 53.51 75.3049 50.185 70.8599 50.185C66.4499 50.185 62.3549 53.51 62.3549 59.285C62.3549 65.06 66.4499 68.42 70.8599 68.42ZM70.8599 64.045C68.8299 64.045 67.8849 62.19 67.8849 59.285C67.8849 56.415 68.8299 54.525 70.8599 54.525C72.8899 54.525 73.8349 56.415 73.8349 59.285C73.8349 62.19 72.8899 64.045 70.8599 64.045ZM88.0673 68.42C90.4123 68.42 92.0573 67.335 93.4923 65.62H93.6323L94.0173 68H98.4273V50.605H93.0023V62.015C92.0573 63.31 91.3223 63.8 90.0973 63.8C88.6973 63.8 88.0673 63.1 88.0673 60.685V50.605H82.6423V61.385C82.6423 65.725 84.2523 68.42 88.0673 68.42ZM102.847 68H108.237V56.345C109.322 55.365 110.057 54.77 111.282 54.77C112.682 54.77 113.312 55.505 113.312 57.92V68H118.737V57.22C118.737 52.88 117.127 50.185 113.347 50.185C110.967 50.185 109.217 51.375 107.782 52.775H107.642L107.257 50.605H102.847V68ZM129.803 68.42C131.518 68.42 132.848 68.07 133.758 67.72L132.918 63.94C132.463 64.115 131.868 64.185 131.308 64.185C130.013 64.185 129.103 63.45 129.103 61.49V54.84H133.198V50.605H129.103V45.285H124.623L123.993 50.605L121.333 50.78V54.84H123.678V61.56C123.678 65.655 125.463 68.42 129.803 68.42ZM141.421 68.42C146.146 68.42 148.666 65.935 148.666 62.75C148.666 59.88 146.566 58.305 143.906 57.465C141.701 56.765 140.721 56.345 140.721 55.435C140.721 54.665 141.316 54.175 142.576 54.175C143.766 54.175 145.061 54.525 146.321 55.435L148.631 52.39C147.126 51.13 144.956 50.185 142.401 50.185C138.341 50.185 135.681 52.39 135.681 55.68C135.681 58.375 137.781 59.95 140.266 60.86C142.121 61.56 143.591 62.015 143.591 63.065C143.591 63.905 142.996 64.43 141.526 64.43C140.161 64.43 138.586 64.01 136.976 62.75L134.701 65.795C136.451 67.51 139.111 68.42 141.421 68.42Z" fill="url(#paint0_linear_0_288)"/>
<defs>
<linearGradient id="paint0_linear_0_288" x1="-68.7683" y1="-110.3" x2="223.297" y2="-84.0585" gradientUnits="userSpaceOnUse">
<stop stop-color="#FB3C00"/>
<stop offset="1" stop-color="#FFB800"/>
</linearGradient>
</defs>
</svg>
