<svg width="183" height="42" viewBox="0 0 183 42" fill="none" xmlns="http://www.w3.org/2000/svg">
<rect width="183" height="42" rx="8" fill="#F17228" fill-opacity="0.2"/>
<path d="M21.346 29.264C20.2167 29.264 19.2487 29.0807 18.442 28.714C17.65 28.3473 16.9973 27.8707 16.484 27.284L17.98 25.238C18.4053 25.6487 18.8747 25.986 19.388 26.25C19.9013 26.514 20.4513 26.646 21.038 26.646C21.7273 26.646 22.2773 26.5067 22.688 26.228C23.0987 25.9347 23.304 25.524 23.304 24.996C23.304 24.5853 23.2013 24.2333 22.996 23.94C22.7907 23.632 22.4167 23.3973 21.874 23.236C21.3313 23.0747 20.554 22.994 19.542 22.994V20.706C20.8033 20.706 21.6687 20.5373 22.138 20.2C22.6073 19.848 22.842 19.3933 22.842 18.836C22.842 18.352 22.6953 17.978 22.402 17.714C22.1087 17.4353 21.6833 17.296 21.126 17.296C20.6273 17.296 20.1727 17.406 19.762 17.626C19.366 17.846 18.948 18.1467 18.508 18.528L16.88 16.548C17.5253 15.9907 18.2073 15.558 18.926 15.25C19.6447 14.9273 20.4293 14.766 21.28 14.766C22.7173 14.766 23.876 15.1033 24.756 15.778C25.6507 16.438 26.098 17.3767 26.098 18.594C26.098 19.3127 25.8927 19.9287 25.482 20.442C25.086 20.9553 24.514 21.3733 23.766 21.696V21.784C24.5727 22.0187 25.2327 22.422 25.746 22.994C26.274 23.5513 26.538 24.2847 26.538 25.194C26.538 26.0593 26.296 26.8 25.812 27.416C25.3427 28.0173 24.712 28.4793 23.92 28.802C23.1427 29.11 22.2847 29.264 21.346 29.264ZM33.431 29.264C31.935 29.264 30.725 28.6407 29.801 27.394C28.8917 26.1473 28.437 24.336 28.437 21.96C28.437 19.584 28.8917 17.7947 29.801 16.592C30.725 15.3747 31.935 14.766 33.431 14.766C34.927 14.766 36.1297 15.3747 37.039 16.592C37.963 17.7947 38.425 19.584 38.425 21.96C38.425 24.336 37.963 26.1473 37.039 27.394C36.1297 28.6407 34.927 29.264 33.431 29.264ZM33.431 26.756C33.7977 26.756 34.1277 26.624 34.421 26.36C34.7144 26.0813 34.9417 25.5973 35.103 24.908C35.279 24.2187 35.367 23.236 35.367 21.96C35.367 20.684 35.279 19.7087 35.103 19.034C34.9417 18.3593 34.7144 17.8973 34.421 17.648C34.1277 17.3987 33.7977 17.274 33.431 17.274C33.079 17.274 32.7564 17.3987 32.463 17.648C32.1697 17.8973 31.935 18.3593 31.759 19.034C31.583 19.7087 31.495 20.684 31.495 21.96C31.495 23.236 31.583 24.2187 31.759 24.908C31.935 25.5973 32.1697 26.0813 32.463 26.36C32.7564 26.624 33.079 26.756 33.431 26.756ZM45.0804 29V18.088H47.7204L47.9404 19.496H48.0284C48.4831 19.0413 48.9671 18.6527 49.4804 18.33C49.9937 17.9927 50.6097 17.824 51.3284 17.824C52.1057 17.824 52.7291 17.9853 53.1984 18.308C53.6824 18.616 54.0637 19.0633 54.3424 19.65C54.8264 19.1513 55.3397 18.726 55.8824 18.374C56.4251 18.0073 57.0557 17.824 57.7744 17.824C58.9477 17.824 59.8057 18.22 60.3484 19.012C60.9057 19.7893 61.1844 20.86 61.1844 22.224V29H57.9504V22.642C57.9504 21.85 57.8404 21.3073 57.6204 21.014C57.4151 20.7207 57.0777 20.574 56.6084 20.574C56.0657 20.574 55.4424 20.926 54.7384 21.63V29H51.5044V22.642C51.5044 21.85 51.3944 21.3073 51.1744 21.014C50.9691 20.7207 50.6317 20.574 50.1624 20.574C49.6197 20.574 49.0037 20.926 48.3144 21.63V29H45.0804ZM63.9437 29V18.088H67.1777V29H63.9437ZM65.5497 16.482C65.007 16.482 64.567 16.328 64.2297 16.02C63.8923 15.712 63.7237 15.3013 63.7237 14.788C63.7237 14.2747 63.8923 13.864 64.2297 13.556C64.567 13.248 65.007 13.094 65.5497 13.094C66.0923 13.094 66.5323 13.248 66.8697 13.556C67.207 13.864 67.3757 14.2747 67.3757 14.788C67.3757 15.3013 67.207 15.712 66.8697 16.02C66.5323 16.328 66.0923 16.482 65.5497 16.482ZM70.0238 29V18.088H72.6638L72.8838 19.474H72.9718C73.4411 19.034 73.9544 18.6527 74.5118 18.33C75.0838 17.9927 75.7364 17.824 76.4698 17.824C77.6578 17.824 78.5158 18.22 79.0438 19.012C79.5864 19.7893 79.8578 20.86 79.8578 22.224V29H76.6238V22.642C76.6238 21.85 76.5138 21.3073 76.2938 21.014C76.0884 20.7207 75.7511 20.574 75.2818 20.574C74.8711 20.574 74.5191 20.6693 74.2258 20.86C73.9324 21.036 73.6098 21.2927 73.2578 21.63V29H70.0238ZM87.2819 29V14.656H91.3299C92.7966 14.656 94.0652 14.9053 95.1359 15.404C96.2066 15.9027 97.0352 16.68 97.6219 17.736C98.2232 18.7773 98.5239 20.1193 98.5239 21.762C98.5239 23.4047 98.2306 24.7613 97.6439 25.832C97.0572 26.9027 96.2359 27.702 95.1799 28.23C94.1386 28.7433 92.9139 29 91.5059 29H87.2819ZM90.5159 26.382H91.1319C91.9532 26.382 92.6646 26.2353 93.2659 25.942C93.8819 25.6487 94.3586 25.1647 94.6959 24.49C95.0332 23.8153 95.2019 22.906 95.2019 21.762C95.2019 20.618 95.0332 19.7233 94.6959 19.078C94.3586 18.418 93.8819 17.956 93.2659 17.692C92.6646 17.4133 91.9532 17.274 91.1319 17.274H90.5159V26.382ZM105.867 29.264C104.825 29.264 103.887 29.0367 103.051 28.582C102.215 28.1273 101.555 27.4747 101.071 26.624C100.587 25.7733 100.345 24.7467 100.345 23.544C100.345 22.356 100.587 21.3367 101.071 20.486C101.569 19.6353 102.215 18.9827 103.007 18.528C103.799 18.0587 104.627 17.824 105.493 17.824C106.534 17.824 107.392 18.0587 108.067 18.528C108.756 18.9827 109.269 19.606 109.607 20.398C109.959 21.1753 110.135 22.0627 110.135 23.06C110.135 23.3387 110.12 23.6173 110.091 23.896C110.061 24.16 110.032 24.358 110.003 24.49H103.469C103.615 25.282 103.945 25.8687 104.459 26.25C104.972 26.6167 105.588 26.8 106.307 26.8C107.084 26.8 107.869 26.558 108.661 26.074L109.739 28.032C109.181 28.4133 108.558 28.714 107.869 28.934C107.179 29.154 106.512 29.264 105.867 29.264ZM103.447 22.356H107.385C107.385 21.7547 107.238 21.2633 106.945 20.882C106.666 20.486 106.204 20.288 105.559 20.288C105.06 20.288 104.613 20.464 104.217 20.816C103.821 21.1533 103.564 21.6667 103.447 22.356ZM115.339 29.264C114.225 29.264 113.447 28.934 113.007 28.274C112.582 27.5993 112.369 26.712 112.369 25.612V13.578H115.603V25.744C115.603 26.0813 115.662 26.316 115.779 26.448C115.911 26.58 116.043 26.646 116.175 26.646C116.249 26.646 116.307 26.646 116.351 26.646C116.41 26.6313 116.483 26.6167 116.571 26.602L116.967 29C116.791 29.0733 116.564 29.132 116.285 29.176C116.021 29.2347 115.706 29.264 115.339 29.264ZM118.664 29V18.088H121.898V29H118.664ZM120.27 16.482C119.728 16.482 119.288 16.328 118.95 16.02C118.613 15.712 118.444 15.3013 118.444 14.788C118.444 14.2747 118.613 13.864 118.95 13.556C119.288 13.248 119.728 13.094 120.27 13.094C120.813 13.094 121.253 13.248 121.59 13.556C121.928 13.864 122.096 14.2747 122.096 14.788C122.096 15.3013 121.928 15.712 121.59 16.02C121.253 16.328 120.813 16.482 120.27 16.482ZM127.252 29L123.578 18.088H126.834L128.242 23.236C128.389 23.7787 128.528 24.336 128.66 24.908C128.807 25.4653 128.954 26.03 129.1 26.602H129.188C129.32 26.03 129.452 25.4653 129.584 24.908C129.731 24.336 129.878 23.7787 130.024 23.236L131.454 18.088H134.556L130.992 29H127.252ZM140.972 29.264C139.931 29.264 138.992 29.0367 138.156 28.582C137.32 28.1273 136.66 27.4747 136.176 26.624C135.692 25.7733 135.45 24.7467 135.45 23.544C135.45 22.356 135.692 21.3367 136.176 20.486C136.675 19.6353 137.32 18.9827 138.112 18.528C138.904 18.0587 139.733 17.824 140.598 17.824C141.64 17.824 142.498 18.0587 143.172 18.528C143.862 18.9827 144.375 19.606 144.712 20.398C145.064 21.1753 145.24 22.0627 145.24 23.06C145.24 23.3387 145.226 23.6173 145.196 23.896C145.167 24.16 145.138 24.358 145.108 24.49H138.574C138.721 25.282 139.051 25.8687 139.564 26.25C140.078 26.6167 140.694 26.8 141.412 26.8C142.19 26.8 142.974 26.558 143.766 26.074L144.844 28.032C144.287 28.4133 143.664 28.714 142.974 28.934C142.285 29.154 141.618 29.264 140.972 29.264ZM138.552 22.356H142.49C142.49 21.7547 142.344 21.2633 142.05 20.882C141.772 20.486 141.31 20.288 140.664 20.288C140.166 20.288 139.718 20.464 139.322 20.816C138.926 21.1533 138.67 21.6667 138.552 22.356ZM147.475 29V18.088H150.115L150.335 20.002H150.423C150.819 19.2687 151.296 18.726 151.853 18.374C152.41 18.0073 152.968 17.824 153.525 17.824C153.833 17.824 154.09 17.846 154.295 17.89C154.5 17.9193 154.676 17.9707 154.823 18.044L154.295 20.838C154.104 20.7793 153.914 20.7353 153.723 20.706C153.547 20.6767 153.342 20.662 153.107 20.662C152.696 20.662 152.264 20.816 151.809 21.124C151.369 21.4173 151.002 21.9307 150.709 22.664V29H147.475ZM157.601 33.268C157.278 33.268 156.992 33.246 156.743 33.202C156.508 33.158 156.281 33.1067 156.061 33.048L156.633 30.584C156.736 30.5987 156.853 30.6207 156.985 30.65C157.117 30.694 157.242 30.716 157.359 30.716C157.902 30.716 158.32 30.584 158.613 30.32C158.906 30.056 159.126 29.7113 159.273 29.286L159.427 28.714L155.225 18.088H158.481L160.043 22.774C160.204 23.2727 160.351 23.7787 160.483 24.292C160.615 24.8053 160.754 25.3333 160.901 25.876H160.989C161.106 25.3627 161.224 24.8493 161.341 24.336C161.473 23.808 161.605 23.2873 161.737 22.774L163.057 18.088H166.159L162.375 29.11C162.038 30.0193 161.664 30.782 161.253 31.398C160.842 32.0287 160.344 32.498 159.757 32.806C159.185 33.114 158.466 33.268 157.601 33.268Z" fill="#F17228"/>
</svg>
