<svg width="129" height="75" viewBox="0 0 129 75" fill="none" xmlns="http://www.w3.org/2000/svg">
<path d="M11.005 21.975C8.03 21.975 6.14 19.245 6.14 14.52C6.14 10.075 8.03 7.485 11.005 7.485C14.015 7.485 15.87 10.075 15.87 14.52C15.87 19.245 14.015 21.975 11.005 21.975ZM18.6 32.44C20.42 32.44 21.855 32.09 22.73 31.635L21.785 27.75C21.085 27.96 20.21 28.1 19.23 28.1C17.34 28.1 15.31 27.54 14.26 25.965C18.635 24.635 21.435 20.575 21.435 14.52C21.435 7.065 17.2 2.795 11.005 2.795C4.81 2.795 0.575 7.03 0.575 14.52C0.575 20.925 3.725 25.125 8.52 26.175C10.2 29.815 13.63 32.44 18.6 32.44ZM30.4833 26.42C32.8283 26.42 34.4733 25.335 35.9083 23.62H36.0483L36.4333 26H40.8433V8.605H35.4183V20.015C34.4733 21.31 33.7383 21.8 32.5133 21.8C31.1133 21.8 30.4833 21.1 30.4833 18.685V8.605H25.0583V19.385C25.0583 23.725 26.6683 26.42 30.4833 26.42ZM45.2626 26H50.6526V8.605H45.2626V26ZM47.9576 6.155C49.7426 6.155 51.0026 5.07 51.0026 3.355C51.0026 1.675 49.7426 0.59 47.9576 0.59C46.1726 0.59 44.9126 1.675 44.9126 3.355C44.9126 5.07 46.1726 6.155 47.9576 6.155ZM62.7372 26.42C64.5922 26.42 66.7972 25.895 68.4772 24.355L66.3772 20.96C65.5022 21.625 64.5222 22.045 63.3672 22.045C61.2322 22.045 59.6222 20.19 59.6222 17.285C59.6222 14.415 61.1272 12.525 63.5422 12.525C64.3122 12.525 64.9772 12.77 65.7822 13.365L68.3022 10.04C67.0072 8.92 65.3622 8.185 63.2272 8.185C58.3972 8.185 54.0922 11.51 54.0922 17.285C54.0922 23.06 57.8372 26.42 62.7372 26.42ZM71.4784 26H76.8334V21.695L78.8284 19.385L82.6084 26H88.4884L82.0134 15.85L88.0684 8.605H82.1184L76.9384 15.185H76.8334V1.535H71.4784V26ZM1.625 68H8.485C15.135 68 19.72 64.395 19.72 56.52C19.72 48.61 15.135 45.215 8.17 45.215H1.625V68ZM7.085 63.625V49.59H7.855C11.53 49.59 14.155 51.095 14.155 56.52C14.155 61.91 11.53 63.625 7.855 63.625H7.085ZM31.3302 68.42C33.3952 68.42 35.7752 67.755 37.5952 66.46L35.8452 63.205C34.6202 63.905 33.3602 64.29 32.1002 64.29C29.8952 64.29 28.2502 63.275 27.7602 60.93H38.0152C38.1202 60.44 38.2252 59.53 38.2252 58.55C38.2252 53.825 35.7752 50.185 30.7352 50.185C26.5702 50.185 22.5102 53.65 22.5102 59.285C22.5102 65.095 26.3602 68.42 31.3302 68.42ZM27.6902 57.29C28.0402 55.26 29.3352 54.28 30.8752 54.28C32.8352 54.28 33.6052 55.575 33.6052 57.29H27.6902ZM46.6088 68.42C47.7988 68.42 48.7087 68.21 49.3038 67.965L48.6738 63.975C48.3938 64.045 48.2538 64.045 48.0438 64.045C47.6238 64.045 47.0638 63.695 47.0638 62.575V43.535H41.6738V62.365C41.6738 66.005 42.8988 68.42 46.6088 68.42ZM51.8251 68H57.2151V50.605H51.8251V68ZM54.5201 48.155C56.3051 48.155 57.5651 47.07 57.5651 45.355C57.5651 43.675 56.3051 42.59 54.5201 42.59C52.7351 42.59 51.4751 43.675 51.4751 45.355C51.4751 47.07 52.7351 48.155 54.5201 48.155ZM65.6597 68H71.9247L77.5247 50.605H72.3447L70.2097 58.62C69.7897 60.335 69.3347 62.155 68.8797 63.975H68.7397C68.3197 62.155 67.8647 60.335 67.4447 58.62L65.2747 50.605H59.8497L65.6597 68ZM87.6925 68.42C89.7575 68.42 92.1375 67.755 93.9575 66.46L92.2075 63.205C90.9825 63.905 89.7225 64.29 88.4625 64.29C86.2575 64.29 84.6125 63.275 84.1225 60.93H94.3775C94.4825 60.44 94.5875 59.53 94.5875 58.55C94.5875 53.825 92.1375 50.185 87.0975 50.185C82.9325 50.185 78.8725 53.65 78.8725 59.285C78.8725 65.095 82.7225 68.42 87.6925 68.42ZM84.0525 57.29C84.4025 55.26 85.6975 54.28 87.2375 54.28C89.1975 54.28 89.9675 55.575 89.9675 57.29H84.0525ZM98.0361 68H103.426V58.06C104.336 55.75 105.911 54.91 107.206 54.91C107.976 54.91 108.361 54.98 108.991 55.12L110.006 50.535C109.516 50.29 108.921 50.185 107.906 50.185C106.156 50.185 104.231 51.27 102.971 53.615H102.831L102.446 50.605H98.0361V68ZM114.527 74.72C118.692 74.72 120.547 72.515 122.262 68.035L128.247 50.605H123.067L121.072 57.815C120.617 59.46 120.267 61.105 119.882 62.75H119.742C119.287 61.035 118.902 59.425 118.412 57.815L116.032 50.605H110.607L117.292 67.51L117.047 68.35C116.627 69.61 115.787 70.485 114.107 70.485C113.757 70.485 113.512 70.45 112.952 70.31L112.007 74.3C112.707 74.58 113.407 74.72 114.527 74.72Z" fill="url(#paint0_linear_0_315)"/>
<defs>
<linearGradient id="paint0_linear_0_315" x1="-58.1045" y1="-110.3" x2="192.227" y2="-91.0637" gradientUnits="userSpaceOnUse">
<stop stop-color="#FB3C00"/>
<stop offset="1" stop-color="#FFB800"/>
</linearGradient>
</defs>
</svg>
