<svg width="115" height="76" viewBox="0 0 115 76" fill="none" xmlns="http://www.w3.org/2000/svg">
<path d="M2.625 26H16.94V21.45H8.085V3.215H2.625V26ZM20.4911 26H25.8811V8.605H20.4911V26ZM23.1861 6.155C24.9711 6.155 26.2311 5.07 26.2311 3.355C26.2311 1.675 24.9711 0.59 23.1861 0.59C21.4011 0.59 20.1411 1.675 20.1411 3.355C20.1411 5.07 21.4011 6.155 23.1861 6.155ZM34.3257 26H40.5907L46.1907 8.605H41.0107L38.8757 16.62C38.4557 18.335 38.0007 20.155 37.5457 21.975H37.4057C36.9857 20.155 36.5307 18.335 36.1107 16.62L33.9407 8.605H28.5157L34.3257 26ZM56.3585 26.42C58.4235 26.42 60.8035 25.755 62.6235 24.46L60.8735 21.205C59.6485 21.905 58.3885 22.29 57.1285 22.29C54.9235 22.29 53.2785 21.275 52.7885 18.93H63.0435C63.1485 18.44 63.2535 17.53 63.2535 16.55C63.2535 11.825 60.8035 8.185 55.7635 8.185C51.5985 8.185 47.5385 11.65 47.5385 17.285C47.5385 23.095 51.3885 26.42 56.3585 26.42ZM52.7185 15.29C53.0685 13.26 54.3635 12.28 55.9035 12.28C57.8635 12.28 58.6335 13.575 58.6335 15.29H52.7185ZM7.07 68H12.495V49.765H18.69V45.215H0.875V49.765H7.07V68ZM20.3202 68H25.7102V58.06C26.6202 55.75 28.1952 54.91 29.4902 54.91C30.2602 54.91 30.6452 54.98 31.2752 55.12L32.2902 50.535C31.8002 50.29 31.2052 50.185 30.1902 50.185C28.4402 50.185 26.5152 51.27 25.2552 53.615H25.1152L24.7302 50.605H20.3202V68ZM37.8894 68.42C39.8494 68.42 41.4244 67.545 42.8594 66.25H42.9994L43.3844 68H47.7944V58.13C47.7944 52.67 45.2744 50.185 40.7944 50.185C38.0644 50.185 35.5794 51.06 33.3044 52.46L35.1944 55.96C36.9444 54.98 38.3444 54.49 39.7444 54.49C41.5294 54.49 42.2644 55.33 42.4044 56.765C35.5444 57.465 32.7094 59.46 32.7094 63.135C32.7094 66.04 34.7044 68.42 37.8894 68.42ZM39.7444 64.22C38.5544 64.22 37.8894 63.73 37.8894 62.715C37.8894 61.49 38.9394 60.545 42.4044 60.09V62.855C41.5644 63.695 40.8294 64.22 39.7444 64.22ZM59.704 68.42C61.559 68.42 63.764 67.895 65.444 66.355L63.344 62.96C62.469 63.625 61.489 64.045 60.334 64.045C58.199 64.045 56.589 62.19 56.589 59.285C56.589 56.415 58.094 54.525 60.509 54.525C61.279 54.525 61.944 54.77 62.749 55.365L65.269 52.04C63.974 50.92 62.329 50.185 60.194 50.185C55.364 50.185 51.059 53.51 51.059 59.285C51.059 65.06 54.804 68.42 59.704 68.42ZM68.4452 68H73.8352V50.605H68.4452V68ZM71.1402 48.155C72.9252 48.155 74.1852 47.07 74.1852 45.355C74.1852 43.675 72.9252 42.59 71.1402 42.59C69.3552 42.59 68.0952 43.675 68.0952 45.355C68.0952 47.07 69.3552 48.155 71.1402 48.155ZM78.2548 68H83.6448V56.345C84.7298 55.365 85.4648 54.77 86.6898 54.77C88.0898 54.77 88.7198 55.505 88.7198 57.92V68H94.1448V57.22C94.1448 52.88 92.5348 50.185 88.7548 50.185C86.3748 50.185 84.6248 51.375 83.1898 52.775H83.0498L82.6648 50.605H78.2548V68ZM104.617 75.315C110.672 75.315 114.487 72.725 114.487 69.05C114.487 65.9 112.072 64.605 107.767 64.605H105.002C103.147 64.605 102.447 64.22 102.447 63.38C102.447 62.82 102.622 62.54 103.007 62.19C103.777 62.4 104.477 62.505 105.072 62.505C108.922 62.505 112.002 60.72 112.002 56.66C112.002 55.82 111.757 55.015 111.477 54.525H114.207V50.605H107.802C106.997 50.325 106.052 50.185 105.072 50.185C101.292 50.185 97.7916 52.25 97.7916 56.485C97.7916 58.515 98.9116 60.125 100.137 60.965V61.105C99.0166 61.91 98.2116 63.17 98.2116 64.395C98.2116 65.83 98.8766 66.74 99.7866 67.37V67.51C98.1766 68.35 97.3366 69.505 97.3366 70.94C97.3366 74.055 100.592 75.315 104.617 75.315ZM105.072 59.25C103.812 59.25 102.867 58.305 102.867 56.485C102.867 54.7 103.777 53.79 105.072 53.79C106.367 53.79 107.277 54.7 107.277 56.485C107.277 58.305 106.367 59.25 105.072 59.25ZM105.492 71.955C103.252 71.955 101.782 71.325 101.782 70.065C101.782 69.505 102.062 69.015 102.622 68.525C103.147 68.665 103.812 68.735 105.072 68.735H106.752C108.397 68.735 109.307 68.945 109.307 69.995C109.307 71.115 107.697 71.955 105.492 71.955Z" fill="url(#paint0_linear_0_296)"/>
<defs>
<linearGradient id="paint0_linear_0_296" x1="-50.9548" y1="-110.3" x2="172.685" y2="-94.9655" gradientUnits="userSpaceOnUse">
<stop stop-color="#FB3C00"/>
<stop offset="1" stop-color="#FFB800"/>
</linearGradient>
</defs>
</svg>
